<?xml version="1.0" standalone="no"?>
<!DOCTYPE svg PUBLIC "-//W3C//DTD SVG 20010904//EN"
 "http://www.w3.org/TR/2001/REC-SVG-20010904/DTD/svg10.dtd">
<svg version="1.0" xmlns="http://www.w3.org/2000/svg"
 width="840.000000pt" height="733.000000pt" viewBox="0 0 840.000000 733.000000"
 preserveAspectRatio="xMidYMid meet">

<g transform="translate(0.000000,733.000000) scale(0.100000,-0.100000)"
fill="#000000" stroke="none">
<path d="M4160 5595 l0 -1325 980 0 980 0 -2 173 -3 172 -755 1 c-415 0 -779
2 -807 2 l-53 2 0 980 0 980 985 0 985 0 0 -810 0 -810 170 0 170 0 0 980 0
980 -1325 0 -1325 0 0 -1325z"/>
<path d="M7128 6906 c-96 -26 -163 -95 -188 -197 -25 -101 25 -212 125 -274
43 -27 57 -30 124 -30 58 0 85 5 116 22 114 61 167 183 132 304 -21 70 -65
122 -130 152 -66 32 -120 39 -179 23z m143 -31 c128 -45 187 -200 124 -324
-41 -81 -108 -121 -204 -121 -208 1 -309 243 -163 389 69 69 152 88 243 56z"/>
<path d="M7100 6660 c0 -116 3 -140 15 -140 10 0 15 15 17 58 3 56 3 57 35 60
30 3 34 0 63 -57 22 -45 36 -61 51 -61 18 0 18 4 -13 60 -29 54 -31 62 -17 73
48 36 47 107 -1 132 -16 8 -56 15 -90 15 l-60 0 0 -140z m131 100 c12 -7 19
-21 19 -40 0 -37 -36 -63 -82 -58 -32 3 -33 4 -36 56 l-3 52 41 0 c23 0 50 -5
61 -10z"/>
<path d="M308 4612 l-98 -3 0 -2139 0 -2140 2145 0 2145 0 0 1795 0 1795 -170
0 -170 0 0 -1620 0 -1620 -1805 0 -1805 0 0 1795 0 1795 1630 0 1630 0 -2 173
-3 172 -1700 0 c-935 0 -1744 -1 -1797 -3z"/>
<path d="M6470 4095 l0 -515 170 0 170 0 2 343 3 342 518 3 517 2 0 -520 0
-520 -345 0 -345 0 0 -170 0 -170 520 0 520 0 0 860 0 860 -865 0 -865 0 0
-515z"/>
<path d="M5538 3223 c-2 -5 -4 -289 -3 -633 l0 -625 638 -3 637 -2 0 635 0
635 -634 0 c-349 0 -636 -3 -638 -7z"/>
</g>
</svg>
