<?xml version="1.0" standalone="no"?>
<!DOCTYPE svg PUBLIC "-//W3C//DTD SVG 20010904//EN"
 "http://www.w3.org/TR/2001/REC-SVG-20010904/DTD/svg10.dtd">
<svg version="1.0" xmlns="http://www.w3.org/2000/svg"
 width="199.000000pt" height="133.000000pt" viewBox="0 0 199.000000 133.000000"
 preserveAspectRatio="xMidYMid meet">

<g transform="translate(0.000000,133.000000) scale(0.100000,-0.100000)"
fill="#000000" stroke="none">
<path d="M0 665 l0 -665 995 0 995 0 0 665 0 665 -995 0 -995 0 0 -665z m1719
429 c40 -51 35 -59 -194 -335 -315 -379 -346 -423 -271 -378 27 16 35 17 44 6
16 -19 -14 -60 -84 -112 -92 -69 -178 -107 -256 -113 -63 -4 -68 -3 -92 23
-33 36 -34 83 -2 150 26 57 125 184 186 238 22 21 36 37 32 37 -5 0 -82 -63
-172 -141 -191 -164 -286 -237 -318 -245 -30 -8 -72 30 -72 65 0 31 44 127 93
203 66 104 59 102 -69 -21 -146 -141 -255 -231 -304 -251 -30 -12 -34 -12 -47
6 -29 38 12 170 87 278 32 48 75 70 90 46 11 -17 4 -32 -48 -113 -43 -68 -49
-93 -15 -66 40 31 322 281 379 335 33 33 127 130 209 217 81 86 156 157 165
157 35 0 100 -95 100 -147 0 -15 -20 -73 -45 -127 -25 -55 -44 -101 -42 -102
1 -1 97 67 212 153 269 198 365 262 392 263 12 0 31 -12 42 -26z m-269 -476
c0 -7 14 -34 30 -60 l30 -48 93 50 c93 50 142 61 165 38 32 -32 6 -70 -119
-169 l-56 -45 49 -84 c26 -46 48 -88 48 -92 0 -34 -76 34 -118 105 -9 15 -19
27 -22 27 -3 0 -39 -30 -80 -66 -94 -83 -130 -102 -165 -86 -37 17 -48 55 -29
100 17 42 89 120 151 163 l42 29 -24 53 c-25 53 -30 78 -18 90 10 11 23 8 23
-5z"/>
</g>
</svg>
