<?xml version="1.0" standalone="no"?>
<!DOCTYPE svg PUBLIC "-//W3C//DTD SVG 20010904//EN"
 "http://www.w3.org/TR/2001/REC-SVG-20010904/DTD/svg10.dtd">
<svg version="1.0" xmlns="http://www.w3.org/2000/svg"
 width="1200.000000pt" height="1096.000000pt" viewBox="0 0 1200.000000 1096.000000"
 preserveAspectRatio="xMidYMid meet">

<g transform="translate(0.000000,1096.000000) scale(0.100000,-0.100000)"
fill="#000000" stroke="none">
<path d="M0 5465 l0 -5465 6000 0 6000 0 0 5465 0 5465 -6000 0 -6000 0 0
-5465z m2995 4215 c66 -6 176 -20 245 -31 163 -26 460 -98 460 -111 0 -5 -11
-87 -24 -181 -26 -176 -50 -400 -62 -564 l-7 -93 -98 0 c-116 0 -102 -21 -119
185 -6 77 -16 180 -22 228 l-11 89 -51 40 c-93 74 -227 132 -366 158 -80 16
-291 13 -392 -5 -340 -59 -605 -280 -754 -627 -156 -366 -185 -966 -68 -1438
105 -423 328 -719 644 -856 345 -150 875 -118 1217 72 34 19 63 34 66 34 3 0
16 -15 31 -34 l26 -35 -68 -128 -67 -128 -75 -37 c-207 -103 -494 -158 -822
-158 -178 0 -276 9 -438 41 -544 108 -960 450 -1160 955 -146 365 -188 893
-105 1300 118 579 474 999 1026 1209 111 43 299 90 414 104 50 6 101 13 115
15 56 8 353 5 465 -4z m7531 -15 c169 -23 546 -103 562 -120 2 -2 -5 -68 -17
-147 -25 -173 -57 -467 -67 -600 l-6 -98 -99 0 c-94 0 -99 1 -103 23 -2 12
-12 109 -21 214 -23 274 -19 258 -82 307 -115 91 -279 151 -442 164 -249 20
-497 -36 -676 -153 -77 -50 -230 -203 -280 -280 -187 -285 -268 -669 -244
-1160 33 -689 279 -1155 709 -1341 345 -150 875 -118 1217 72 34 19 63 34 66
34 3 0 16 -15 31 -34 l26 -35 -68 -128 -67 -128 -75 -37 c-225 -112 -530 -165
-889 -155 -196 5 -302 19 -456 58 -689 176 -1117 700 -1204 1473 -90 798 153
1426 694 1788 220 148 507 254 770 287 50 6 101 13 115 15 55 10 501 -4 606
-19z m-3236 -15 c350 -46 567 -214 647 -502 27 -98 24 -309 -5 -413 -76 -263
-285 -475 -588 -594 -55 -21 -108 -42 -119 -46 -14 -5 18 -17 110 -40 309 -78
492 -180 613 -340 98 -131 143 -284 144 -490 1 -517 -320 -917 -850 -1059
-233 -62 -265 -64 -1112 -55 -217 2 -461 0 -542 -5 l-148 -8 0 96 c0 108 -8
99 94 110 55 7 113 36 138 71 49 65 48 48 48 1480 0 874 -4 1362 -10 1404 -22
132 -72 178 -207 189 l-63 5 0 99 0 100 183 -8 c237 -10 889 -8 1087 4 213 12
490 13 580 2z m-2750 -15 c168 0 380 4 473 8 l167 8 0 -95 0 -95 -37 -6 c-156
-22 -181 -34 -213 -100 -37 -77 -41 -235 -38 -1595 3 -1011 7 -1293 17 -1323
21 -65 68 -106 136 -123 33 -7 77 -14 98 -14 l37 0 0 -100 0 -100 -127 8 c-71
4 -294 7 -498 7 -203 0 -427 -3 -497 -7 l-128 -8 0 99 0 98 72 7 c85 8 150 34
174 71 43 66 44 85 44 1462 0 857 -4 1339 -10 1390 -20 143 -71 204 -184 218
-28 3 -63 8 -78 11 l-28 6 0 94 0 95 158 -8 c86 -4 294 -8 462 -8z m6940
-4294 l0 -128 -82 -7 c-907 -74 -1943 -208 -2878 -372 -2856 -501 -5531 -1404
-7735 -2612 l-220 -121 -3 587 c-1 322 1 589 5 593 10 10 418 162 713 267
2836 1006 6164 1655 9665 1887 209 13 403 26 430 28 28 2 62 4 78 5 l27 2 0
-129z m0 -525 l0 -124 -27 -6 c-16 -3 -93 -12 -173 -21 -80 -9 -251 -29 -380
-46 -3970 -509 -7575 -1798 -10140 -3627 -96 -69 -181 -129 -187 -135 -10 -7
-13 74 -13 399 l0 409 88 49 c787 443 1356 731 2069 1047 2461 1091 5298 1820
8288 2128 358 37 458 48 468 50 4 0 7 -55 7 -123z"/>
<path d="M6535 9384 c-124 -19 -133 -23 -139 -62 -4 -20 -9 -282 -13 -581 -4
-430 -2 -545 7 -551 7 -5 61 -11 119 -15 112 -7 243 5 345 31 202 52 347 194
402 394 25 89 25 328 1 418 -25 93 -63 164 -119 220 -100 101 -219 141 -433
147 -77 2 -153 1 -170 -1z"/>
<path d="M6380 7147 c0 -665 2 -766 15 -771 42 -16 200 -28 295 -22 222 13
377 73 496 191 153 153 216 373 193 682 -27 362 -184 568 -497 650 -84 22
-125 26 -299 30 l-203 6 0 -766z"/>
</g>
</svg>
