<?xml version="1.0" standalone="no"?>
<!DOCTYPE svg PUBLIC "-//W3C//DTD SVG 20010904//EN"
 "http://www.w3.org/TR/2001/REC-SVG-20010904/DTD/svg10.dtd">
<svg version="1.0" xmlns="http://www.w3.org/2000/svg"
 width="582.000000pt" height="396.000000pt" viewBox="0 0 582.000000 396.000000"
 preserveAspectRatio="xMidYMid meet">

<g transform="translate(0.000000,396.000000) scale(0.100000,-0.100000)"
fill="#000000" stroke="none">
<path d="M3780 3090 c0 -688 3 -860 13 -853 6 6 54 40 105 77 l92 68 0 708 0
708 -92 68 c-51 37 -99 71 -105 77 -10 7 -13 -165 -13 -853z"/>
<path d="M100 3080 c0 -678 3 -850 12 -844 7 5 52 39 101 77 l87 69 0 697 0
697 -47 36 c-27 19 -72 54 -100 78 l-53 42 0 -852z"/>
<path d="M1400 3085 c0 -460 4 -835 8 -833 4 2 49 32 100 67 l92 63 2 695 3
695 -88 70 c-48 38 -94 71 -102 74 -13 5 -15 -96 -15 -831z"/>
<path d="M3166 3838 c-184 -609 -281 -955 -316 -1122 l-18 -91 56 -73 c31 -40
63 -81 69 -89 7 -9 14 -15 16 -12 2 2 87 301 190 664 l186 660 -72 73 c-39 39
-75 72 -79 72 -4 0 -19 -37 -32 -82z"/>
<path d="M3110 896 c0 -471 2 -856 4 -856 2 0 47 30 100 66 l96 65 0 723 0
724 -92 63 c-51 35 -96 66 -100 67 -4 2 -8 -381 -8 -852z"/>
<path d="M100 884 c0 -538 4 -844 10 -842 5 1 50 35 100 73 l90 70 0 697 0
697 -95 76 c-52 41 -97 75 -100 75 -3 0 -5 -381 -5 -846z"/>
<path d="M1847 1653 c-81 -247 -498 -1586 -495 -1589 2 -2 54 30 116 71 77 52
112 81 112 94 0 10 90 322 199 692 l199 673 -45 60 c-26 34 -50 65 -54 69 -3
5 -18 -27 -32 -70z"/>
<path d="M4615 1533 c-63 -92 -91 -288 -61 -417 22 -94 59 -157 129 -222 76
-71 164 -114 365 -181 225 -74 261 -94 282 -158 7 -22 40 -56 105 -109 52 -42
99 -75 104 -72 15 10 36 100 36 161 0 80 -26 145 -77 190 -54 50 -90 64 -317
129 -226 65 -303 100 -365 161 -67 68 -89 134 -84 260 3 74 10 112 25 147 l21
46 -63 51 c-34 28 -65 51 -68 51 -4 0 -18 -17 -32 -37z"/>
</g>
</svg>
