<svg width="18" height="11" viewBox="0 0 18 11" fill="none" xmlns="http://www.w3.org/2000/svg">
<path d="M2.696 6.736C2.696 6.808 2.536 7.08 2.216 7.552C1.904 8.024 1.748 8.296 1.748 8.368C1.748 8.44 1.772 8.476 1.82 8.476C1.868 8.476 2.004 8.38 2.228 8.188C2.452 7.996 2.836 7.656 3.38 7.168C3.932 6.68 4.452 6.224 4.94 5.8C5.428 5.376 6.068 4.744 6.86 3.904C7.66 3.064 8.3 2.384 8.78 1.864C9.26 1.344 9.536 1.084 9.608 1.084C9.848 1.084 10.092 1.292 10.34 1.708C10.596 2.124 10.724 2.416 10.724 2.584C10.724 2.752 10.564 3.184 10.244 3.88L9.764 4.936C9.764 4.968 9.772 4.984 9.788 4.984C9.812 4.984 10.784 4.272 12.704 2.848C14.632 1.416 15.704 0.7 15.92 0.7C16.08 0.7 16.236 0.784 16.388 0.952C16.54 1.12 16.616 1.292 16.616 1.468C16.616 1.636 16.168 2.264 15.272 3.352C14.376 4.44 13.476 5.52 12.572 6.592C11.676 7.664 11.228 8.276 11.228 8.428C11.228 8.452 11.248 8.464 11.288 8.464C11.328 8.464 11.42 8.404 11.564 8.284C11.708 8.156 11.828 8.092 11.924 8.092C12.092 8.092 12.176 8.172 12.176 8.332C12.176 8.484 11.98 8.732 11.588 9.076C11.196 9.42 10.696 9.748 10.088 10.06C9.488 10.372 8.972 10.528 8.54 10.528C8.108 10.528 7.808 10.432 7.64 10.24C7.48 10.056 7.4 9.824 7.4 9.544C7.4 9.096 7.7 8.48 8.3 7.696C8.908 6.912 9.448 6.34 9.92 5.98C9.96 5.94 9.98 5.912 9.98 5.896C9.98 5.872 9.968 5.86 9.944 5.86C9.864 5.86 9.44 6.2 8.672 6.88C6.384 8.904 5.084 9.916 4.772 9.916C4.66 9.916 4.528 9.828 4.376 9.652C4.224 9.476 4.148 9.34 4.148 9.244C4.148 8.836 4.536 8.016 5.312 6.784C5.568 6.384 5.696 6.176 5.696 6.16L5.66 6.136C5.644 6.136 5.624 6.148 5.6 6.172L4.436 7.312C2.62 9.088 1.488 9.976 1.04 9.976C0.816 9.976 0.704 9.788 0.704 9.412C0.704 9.028 0.916 8.436 1.34 7.636C1.756 6.828 2.104 6.424 2.384 6.424C2.592 6.424 2.696 6.528 2.696 6.736ZM15.8992 10.144C15.6992 10.096 15.2872 9.58 14.6632 8.596C14.5352 8.708 14.3552 8.872 14.1232 9.088C13.8912 9.304 13.7112 9.468 13.5832 9.58C13.4552 9.692 13.3072 9.816 13.1392 9.952C12.8272 10.192 12.5832 10.312 12.4072 10.312C12.2312 10.312 12.0752 10.232 11.9392 10.072C11.8032 9.912 11.7352 9.768 11.7352 9.64C11.7352 8.968 12.4392 8.16 13.8472 7.216C13.5112 6.6 13.3432 6.188 13.3432 5.98C13.3432 5.94 13.3632 5.884 13.4032 5.812C13.4512 5.732 13.4872 5.692 13.5112 5.692C13.5432 5.692 13.5632 5.708 13.5712 5.74C13.6592 5.972 13.8872 6.38 14.2552 6.964C14.7272 6.668 15.1752 6.416 15.5992 6.208C16.0312 5.992 16.2752 5.884 16.3312 5.884C16.3872 5.884 16.4272 5.888 16.4512 5.896C16.4832 5.896 16.5352 5.904 16.6072 5.92C16.6872 5.936 16.7552 5.96 16.8112 5.992C16.8672 6.024 16.9192 6.072 16.9672 6.136C17.0152 6.192 17.0392 6.26 17.0392 6.34C17.0392 6.42 17.0072 6.508 16.9432 6.604C16.8792 6.7 16.7752 6.816 16.6312 6.952C16.4872 7.08 16.3472 7.2 16.2112 7.312C15.7312 7.704 15.3512 8.012 15.0712 8.236C15.7352 9.276 16.0672 9.86 16.0672 9.988C16.0672 10.076 16.0112 10.128 15.8992 10.144Z" fill="#313BAC"/>
</svg>
